#define delete_width 21
#define delete_height 16
#define delete_x_hot 10
#define delete_y_hot 8
static char delete_bits[] = {
   0x00, 0x00, 0x00, 0x00, 0x0e, 0x00, (char)0x80, (char)0x31, 0x00, (char)0x60, (char)0xc0, 0x00,
   (char)0x20, (char)0xe0, 0x00, (char)0x10, (char)0x70, 0x01, (char)0x10, (char)0x38, 0x01, 0x08, (char)0x1c, 0x02,
   0x08, 0x0e, 0x02, 0x08, 0x07, 0x02, (char)0x90, 0x03, 0x01, (char)0xd0, 0x01, 0x01,
   (char)0xe0, (char)0x80, 0x00, (char)0x60, (char)0xc0, 0x00, (char)0x80, (char)0x31, 0x00, 0x00, 0x0e, 0x00 };
