#define nodedown_width 16
#define nodedown_height 16
#define nodedown_x_hot 0
#define nodedown_y_hot 0
static char nodedown_bits[] = {
   0x00, 0x00, 0x00, 0x00, 0x00, 0x00, 0x00, 0x00, (char)0xc0, 0x01, (char)0x20, 0x02, 
   (char)0x10, 0x04, (char)0x10, 0x04, (char)0x10, 0x04, (char)0x20, 0x02, (char)0xc0, 0x01, 0x00, 0x00, 
   0x00, 0x00, 0x00, 0x00, 0x00, 0x00, 0x00, 0x00};
