#define rew_width 20
#define rew_height 13
static char rew_bits[] = {
   0x00, 0x00, 0x00, 0x00, 0x01, 0x01, (char)0x80, (char)0x81, 0x01, (char)0xc0, (char)0xc1, 0x01,
   (char)0xe0, (char)0xe1, 0x01, (char)0xf0, (char)0xf1, 0x01, (char)0xf8, (char)0xf9, 0x01, (char)0xf0, (char)0xf1, 0x01,
   (char)0xe0, (char)0xe1, 0x01, (char)0xc0, (char)0xc1, 0x01, (char)0x80, (char)0x81, 0x01, 0x00, 0x01, 0x01,
   0x00, 0x00, 0x00};
