#define time_width 30
#define time_height 10
static char time_bits[] = {
   (char)0xff, (char)0x5f, (char)0xff, (char)0x3f, 0x01, (char)0x40, 0x00, (char)0x20, (char)0x7d, (char)0x47, (char)0x44, (char)0x2f,
   (char)0x11, (char)0xe2, (char)0x6c, (char)0x21, (char)0x11, (char)0xe2, (char)0x54, (char)0x23, (char)0x11, (char)0xe2, (char)0x44, (char)0x21,
   (char)0x11, (char)0xe2, (char)0x44, (char)0x21, (char)0x11, (char)0xf7, (char)0x45, (char)0x2f, 0x01, (char)0xf0, 0x01, (char)0x20,
   (char)0xff, (char)0xf7, (char)0xfd, (char)0x3f};
