#define zoomin_width 21
#define zoomin_height 16
static char zoomin_bits[] = {
   0x00, 0x00, 0x00, 0x00, 0x04, 0x00, 0x00, (char)0x1b, 0x00, (char)0xc0, (char)0x60, 0x00,
   (char)0x30, (char)0x80, 0x01, 0x0c, 0x00, 0x06, (char)0xff, (char)0xe0, (char)0x1f, (char)0x41, (char)0x40, (char)0x10,
   (char)0x21, (char)0x80, (char)0x10, (char)0x3f, (char)0x80, (char)0x1f, (char)0xf0, (char)0xff, 0x01, (char)0x10, 0x00, 0x01,
   (char)0x10, 0x00, 0x01, (char)0x10, 0x00, 0x01, (char)0xf0, (char)0xff, 0x01, 0x00, 0x00, 0x00};
